<svg width="694" height="248" viewBox="0 0 694 248" fill="none" xmlns="http://www.w3.org/2000/svg">
<path d="M39.9225 115.996V214.177H0V55.5013H39.9225L103.299 148.723L166.676 55.5013H206.599V214.177H166.676V115.996L103.299 214.177L39.9225 115.996Z" fill="#205765"/>
<path d="M400.16 94.995V55.5725H276.803C226.657 55.5725 226.657 55.5725 226.657 104.851V164.97C226.657 214.248 226.657 214.248 276.803 214.248H400.16V115.692H313.91V155.115H360.044V174.826H276.803C266.773 174.826 266.773 174.826 266.773 164.97V104.851C266.773 94.995 266.773 94.995 276.803 94.995H400.16Z" fill="#205765"/>
<path fill-rule="evenodd" clip-rule="evenodd" d="M606.759 55.4998H586.869L523.492 148.722L460.115 55.4998H420.192V214.175H460.115V115.995L523.492 214.175L586.869 115.995V214.175H626.791V75.4068H606.759V55.4998Z" fill="#205765"/>
<rect x="620.762" y="36.6881" width="30.0854" height="29.7053" fill="#E07B52"/>
<rect x="588.671" y="25.7961" width="22.0626" height="21.7839" fill="#205765"/>
<rect x="619.759" y="10.945" width="16.0465" height="15.8428" fill="#205765"/>
<path d="M86.335 40.2236C146.681 9.30983 224.19 -0.996545 303.308 2.72559C382.452 6.44899 463.393 24.2188 530.735 49.6387C597.983 75.023 652.021 108.169 676.975 142.874C689.491 160.281 694.83 178.29 690.538 195.96C686.256 213.589 672.501 230.399 647.892 245.698L645.219 242.824C655.469 228.727 659.17 213.974 657.332 199.054C655.488 184.084 648.044 168.774 635.698 153.69C610.987 123.497 566.954 94.6022 510.697 71.7051C398.225 25.9275 237.712 4.45437 87.7559 43.9375L86.335 40.2236Z" fill="#E07B52" stroke="white" stroke-width="4"/>
</svg>
